<svg xmlns="http://www.w3.org/2000/svg" viewBox="0 0 16 16"><path d="M15.8 3.7V1.6c0-.6-.6-1.1-1.2-1.1H1.1C.5.5 0 1 0 1.5v2.2c0 .6.5 1 1.1 1H7a6.3 6.3 0 0 1 3.8-1h1c1 .2 2 .5 2.7 1h.2c.6 0 1.2-.4 1.2-1ZM4.3 10v-.3a6 6 0 0 1 1.1-3.5c.1-.1 0-.3-.1-.3H1c-.6 0-1.1.4-1.1 1v2.2c0 .6.5 1 1.1 1h3s.2 0 .2-.2ZM7.4 15c.2.1.1.5-.1.5H1c-.6 0-1.1-.5-1.1-1v-2.2c0-.6.5-1 1.1-1H4.5A6.1 6.1 0 0 0 7.4 15Z"/><path d="M14 5.9a5 5 0 0 1 2 3.8c0 .6 0 1.1-.2 1.6l-.2.4a5.3 5.3 0 0 1-5 3.1 5.3 5.3 0 0 1-5-3.6l-.2-1v-.5c0-1.5.7-3 1.9-3.8a5.3 5.3 0 0 1 3.4-1.2h1c.9.2 1.7.6 2.4 1.2ZM9 12.8h.3l2.7-1.6 1.7-.9a.4.4 0 0 0 .2-.2v-.6l-.2-.2-4.4-2.5c-.4-.2-1 0-1 .5v5l.2.2.2.2h.3Z"/></svg>